<?xml version="1.0" encoding="UTF-8" standalone="no"?>
<svg
   xmlns:dc="http://purl.org/dc/elements/1.1/"
   xmlns:cc="http://creativecommons.org/ns#"
   xmlns:rdf="http://www.w3.org/1999/02/22-rdf-syntax-ns#"
   xmlns:svg="http://www.w3.org/2000/svg"
   xmlns="http://www.w3.org/2000/svg"
   xmlns:sodipodi="http://sodipodi.sourceforge.net/DTD/sodipodi-0.dtd"
   xmlns:inkscape="http://www.inkscape.org/namespaces/inkscape"
   version="1.1"
   id="svg10"
   width="15.999887"
   height="15.999857"
   viewBox="0 0 15.999887 15.999857"
   sodipodi:docname="logoazul.svg"
   inkscape:version="1.0.1 (3bc2e813f5, 2020-09-07)"
   inkscape:export-filename="C:\Users\ksmar\PhpstormProjects\app-cinecolombia\imagenes\blogo.png"
   inkscape:export-xdpi="96.000679"
   inkscape:export-ydpi="96.000679">
  <metadata
     id="metadata16">
    <rdf:RDF>
      <cc:Work
         rdf:about="">
        <dc:format>image/svg+xml</dc:format>
        <dc:type
           rdf:resource="http://purl.org/dc/dcmitype/StillImage" />
        <dc:title></dc:title>
      </cc:Work>
    </rdf:RDF>
  </metadata>
  <defs
     id="defs14">
    <filter
       inkscape:collect="always"
       style="color-interpolation-filters:sRGB"
       id="filter847"
       x="-1.2e-06"
       width="1.0000024"
       y="-1.2e-06"
       height="1.0000024">
      <feGaussianBlur
         inkscape:collect="always"
         stdDeviation="8e-06"
         id="feGaussianBlur849" />
    </filter>
  </defs>
  <sodipodi:namedview
     pagecolor="#ffffff"
     bordercolor="#666666"
     borderopacity="1"
     objecttolerance="10"
     gridtolerance="10"
     guidetolerance="10"
     inkscape:pageopacity="0"
     inkscape:pageshadow="2"
     inkscape:window-width="1360"
     inkscape:window-height="705"
     id="namedview12"
     showgrid="false"
     inkscape:zoom="19.30264"
     inkscape:cx="4.3857691"
     inkscape:cy="5.8788647"
     inkscape:window-x="-8"
     inkscape:window-y="-8"
     inkscape:window-maximized="1"
     inkscape:current-layer="g18"
     inkscape:document-rotation="0"
     fit-margin-top="0"
     fit-margin-left="0"
     fit-margin-right="0"
     fit-margin-bottom="0" />
  <g
     inkscape:groupmode="layer"
     inkscape:label="Image"
     id="g18"
     transform="translate(-0.33404694,-0.33982813)">
    <path
       style="fill:#ffffff;stroke-width:0.0518064"
       d=""
       id="path851"
       transform="translate(0.33404694,0.33982813)" />
    <g
       id="g893">
      <path
         style="fill:#132454;fill-opacity:1;stroke-width:0.0445166;filter:url(#filter847)"
         d="M 7.5120221,16.298955 C 5.5413377,16.091379 3.5896297,15.085559 2.3207016,13.62359 -0.06662608,10.87308 -0.33042247,6.9112999 1.6737926,3.9080994 2.294857,2.9774702 2.975125,2.2973275 3.9022459,1.6800564 c 3.0152253,-2.00751754 6.9911271,-1.73661493 9.7362111,0.6633878 1.010228,0.8832345 1.844441,2.1477283 2.283242,3.460923 0.902035,2.6995125 0.29682,5.6755908 -1.593521,7.8359658 -1.660047,1.897182 -4.293473,2.924343 -6.8161559,2.658622 z M 4.0469548,12.609828 c 0.1602784,-0.09768 0.1761022,-0.141575 0.079833,-0.221439 -0.051397,-0.04264 -0.085834,-0.03915 -0.1657476,0.0168 -0.2103018,0.14724 -0.4817895,0.01972 -0.4817895,-0.226298 0,-0.248824 0.3101699,-0.377398 0.4987954,-0.206764 0.077675,0.07027 0.08756,0.07009 0.1593464,-0.0028 0.072458,-0.07357 0.069881,-0.08349 -0.048395,-0.186183 -0.2835748,-0.246211 -0.7580357,-0.07062 -0.817366,0.302492 -0.072288,0.454602 0.3836822,0.762878 0.7753232,0.524188 z m 0.4563895,-0.42331 V 11.67468 H 4.3920298 4.2807153 v 0.511838 0.511837 h 0.1113145 0.1113145 z m 0.3656046,0.122396 c 0.012822,-0.388144 0.013273,-0.389489 0.1353108,-0.403525 l 0.122446,-0.01408 v 0.403524 c 0,0.400755 7.659e-4,0.403525 0.1113146,0.403525 0.1112722,0 0.1113145,-1.78e-4 0.1113145,-0.442552 0,-0.406867 -0.00798,-0.44814 -0.098959,-0.511838 -0.1348175,-0.09439 -0.3588981,-0.08713 -0.4860752,0.01575 -0.094851,0.07673 -0.1066225,0.126711 -0.1205453,0.511838 l -0.01543,0.426804 h 0.113879 c 0.1124982,0 0.1140352,-0.0047 0.1267442,-0.389441 z m 1.1927989,0.278172 c 0,-0.09749 -0.019294,-0.111269 -0.1558403,-0.111269 -0.136546,0 -0.1558404,-0.01378 -0.1558404,-0.111269 0,-0.09749 0.019294,-0.111269 0.1558404,-0.111269 0.1365459,0 0.1558403,-0.01378 0.1558403,-0.111269 0,-0.09749 -0.019294,-0.111269 -0.1558403,-0.111269 -0.2066354,0 -0.2162156,-0.122064 -0.011131,-0.14183 0.1109111,-0.01069 0.1480314,-0.03734 0.1589366,-0.114089 0.013414,-0.09441 -0.00123,-0.100142 -0.2560234,-0.100142 H 5.5274381 v 0.458428 c 0,0.297213 0.01879,0.477212 0.053431,0.511838 0.029387,0.02938 0.1496068,0.05341 0.2671549,0.05341 0.1982882,0 0.2137239,-0.008 0.2137238,-0.11127 z m 1.3831655,0.03574 c 0.1557143,-0.09194 0.1903643,-0.168065 0.1077155,-0.236629 -0.047955,-0.03978 -0.085368,-0.03542 -0.1631012,0.019 -0.1974902,0.138271 -0.4145705,0.06567 -0.4971245,-0.166265 -0.029845,-0.08385 0.036263,-0.2503 0.1221838,-0.307648 0.084215,-0.05621 0.3057757,-0.0371 0.3833338,0.03306 0.066485,0.06014 0.082157,0.05833 0.1507426,-0.01742 0.073094,-0.08074 0.070601,-0.08878 -0.055303,-0.178391 -0.083739,-0.0596 -0.2000138,-0.09384 -0.3186617,-0.09384 -0.1530873,0 -0.2141447,0.02732 -0.3382016,0.151326 -0.1269605,0.126908 -0.1513878,0.183392 -0.1513878,0.350058 0,0.414142 0.4083792,0.654265 0.7598041,0.446758 z m 0.97816,0.008 C 8.6635656,12.506528 8.7534299,12.195814 8.6222363,11.942217 8.5264141,11.756993 8.3849249,11.67468 8.1623639,11.67468 c -0.1622961,0 -0.2202433,0.02532 -0.346299,0.151326 -0.1237119,0.123661 -0.1513878,0.185221 -0.1513878,0.336733 0,0.232145 0.056285,0.338914 0.2366022,0.448816 0.1705913,0.103975 0.3454535,0.110437 0.521794,0.01928 z M 7.9862652,12.406532 c -0.1247555,-0.08735 -0.1345142,-0.329831 -0.017533,-0.435654 0.1873758,-0.169504 0.4974095,-0.03985 0.4974095,0.208017 0,0.244874 -0.2713862,0.37361 -0.4798765,0.227637 z m 1.325867,0.180554 c 0,-0.09749 -0.019294,-0.111269 -0.1558403,-0.111269 H 9.0004515 v -0.400569 c 0,-0.397601 -8.237e-4,-0.400568 -0.1113145,-0.400568 H 8.7778224 v 0.458428 c 0,0.297213 0.01879,0.477212 0.053431,0.511838 0.029387,0.02938 0.1496068,0.05341 0.2671549,0.05341 0.1982881,0 0.2137239,-0.008 0.2137239,-0.11127 z m 0.7583958,0.04375 c 0.240493,-0.124312 0.330357,-0.435026 0.199163,-0.688623 -0.09582,-0.185224 -0.237311,-0.267537 -0.459872,-0.267537 -0.1622961,0 -0.2202433,0.02532 -0.346299,0.151326 -0.1237119,0.123661 -0.1513878,0.185221 -0.1513878,0.336733 0,0.232145 0.056285,0.338914 0.2366022,0.448816 0.1705913,0.103975 0.3454535,0.110437 0.5217936,0.01928 z M 9.6084511,12.394424 c -0.097809,-0.108033 -0.093721,-0.331766 0.00774,-0.423546 0.1911667,-0.172933 0.4974099,-0.03407 0.4974099,0.225543 0,0.234957 -0.3481424,0.37142 -0.5051462,0.198003 z m 0.9949299,-0.09664 c 0,-0.370897 0.0066,-0.400569 0.08905,-0.400569 0.08246,0 0.08905,0.02967 0.08905,0.400569 0,0.397601 8.24e-4,0.400568 0.111315,0.400568 0.11049,0 0.111314,-0.003 0.111314,-0.400568 0,-0.370897 0.0066,-0.400569 0.08905,-0.400569 0.08245,0 0.08905,0.02967 0.08905,0.400569 0,0.397601 8.24e-4,0.400568 0.111315,0.400568 0.110072,0 0.111314,-0.0043 0.111314,-0.381241 0,-0.357406 -0.04347,-0.53726 -0.145997,-0.604108 -0.02399,-0.01564 -0.191596,-0.02844 -0.372464,-0.02844 -0.298564,0 -0.336989,0.01034 -0.417241,0.112326 -0.07307,0.09286 -0.08839,0.180701 -0.08839,0.506893 0,0.391199 9.48e-4,0.394566 0.111314,0.394566 0.11049,0 0.111315,-0.003 0.111315,-0.400568 z m 1.606354,0.270469 c 0.149348,-0.149287 0.162368,-0.249399 0.0527,-0.405216 -0.0426,-0.06053 -0.08033,-0.165263 -0.08386,-0.232751 -0.01058,-0.202791 -0.08878,-0.255609 -0.378449,-0.255609 h -0.261703 v 0.392062 c 0,0.402713 0.02893,0.486489 0.200366,0.580219 0.160952,0.088 0.332927,0.05926 0.470946,-0.0787 z m -0.432799,-0.159767 c -0.06009,-0.156534 0.184821,-0.266619 0.295797,-0.132956 0.04422,0.05326 0.04422,0.08026 0,0.133523 -0.07184,0.08652 -0.262505,0.08616 -0.295797,-5.66e-4 z m -0.01237,-0.411129 c -0.0028,-0.07868 0.02091,-0.100142 0.110427,-0.100142 0.06462,0 0.102031,0.01926 0.08642,0.04451 -0.01514,0.02448 -0.05472,0.04451 -0.08797,0.04451 -0.03325,0 -0.07056,0.02504 -0.08291,0.05563 -0.01235,0.0306 -0.02404,0.01057 -0.02597,-0.04451 z m 0.842475,0.189158 V 11.67468 h -0.111314 -0.111315 v 0.482166 c 0,0.265191 0.01336,0.495518 0.02968,0.511837 0.01633,0.01632 0.06642,0.02967 0.111319,0.02967 0.07442,0 0.08163,-0.04518 0.08163,-0.511838 z m 0.356207,0.333807 c 0,-0.16814 0.0074,-0.178031 0.133577,-0.178031 0.126157,0 0.133578,0.0099 0.133578,0.178031 0,0.160227 0.01113,0.17803 0.111314,0.17803 0.110365,0 0.111315,-0.0034 0.111315,-0.394566 0,-0.490559 -0.07916,-0.629109 -0.359438,-0.629109 -0.294271,0 -0.352975,0.09993 -0.352975,0.600853 0,0.421339 4.01e-4,0.422822 0.111314,0.422822 0.100183,0 0.111315,-0.0178 0.111315,-0.17803 z m 0,-0.514794 c 0,-0.09835 0.01702,-0.112268 0.122446,-0.100142 0.08767,0.01008 0.126487,0.04252 0.136674,0.114225 0.0121,0.08519 -0.0062,0.100142 -0.122446,0.100142 -0.117045,0 -0.136674,-0.01641 -0.136674,-0.114225 z m -1.918537,-1.156063 c 0.853172,-0.201024 1.604763,-0.818809 1.98149,-1.6287276 0.249084,-0.535501 0.260213,-0.4955185 -0.16926,-0.6081125 -0.20557,-0.053894 -0.394432,-0.097989 -0.419693,-0.097989 -0.02526,0 -0.07022,0.075107 -0.09991,0.1669036 -0.137055,0.423741 -0.549497,0.9091892 -0.96409,1.1347468 C 10.750838,10.154906 9.9208402,10.1544 9.296806,9.8150222 8.7936015,9.5413564 8.3617666,8.9481076 8.2444063,8.3692499 L 8.1923703,8.1125918 7.9619199,8.3386354 C 7.6788795,8.6162632 7.2019306,8.8588093 6.8055876,8.9266723 5.4150985,9.1647556 4.1417565,7.9061632 4.3583016,6.5077341 4.4516836,5.9046821 4.8332063,5.3162499 5.3386927,4.9956521 6.0636313,4.5358699 7.1149921,4.5956375 7.8017471,5.1356713 L 7.9610756,5.2609603 8.2639318,4.9558903 8.5667879,4.6508204 8.2827061,4.4401247 C 7.7127939,4.0174382 7.1483135,3.8284582 6.4624801,3.8307398 5.1304993,3.835171 4.0428635,4.6440527 3.6055592,5.9554501 3.456705,6.4018371 3.4565988,7.1907673 3.6053277,7.6689937 3.7653445,8.1835129 3.9844356,8.5391248 4.3876601,8.9388153 4.9739443,9.5199616 5.6603721,9.8028098 6.4887513,9.804587 6.853065,9.8053703 7.4151286,9.6909101 7.6493375,9.5682457 7.7686765,9.5057437 7.773532,9.5086429 7.9624439,9.7552013 8.3613743,10.275867 9.0004952,10.70072 9.6045087,10.846757 c 0.352665,0.08527 1.0839793,0.08664 1.4402023,0.0027 z m -0.39175,-1.0443404 c 0.576052,-0.1074645 1.119582,-0.5198339 1.378731,-1.0460257 0.07875,-0.1598963 0.13221,-0.3016869 0.118802,-0.3150895 -0.01341,-0.013403 -0.195681,-0.071479 -0.405051,-0.1290592 L 11.36477,8.2102593 11.229155,8.4504563 C 10.952001,8.9413456 10.358967,9.1057861 9.8410824,8.8353507 9.1026792,8.449762 9.1459681,7.3459404 9.9132304,6.9956347 10.144256,6.8901565 10.527809,6.8900502 10.759221,6.9954122 c 0.207628,0.094522 0.496982,0.3978127 0.538933,0.5648894 0.02314,0.092177 0.04859,0.110629 0.123576,0.089613 0.05194,-0.014556 0.224668,-0.059031 0.383848,-0.098833 0.15918,-0.039802 0.30761,-0.088795 0.329846,-0.1088732 C 12.214294,7.3709893 11.905769,6.8475316 11.629895,6.5845 11.31925,6.288316 10.997919,6.1274116 10.611614,6.0746028 9.3527733,5.9025159 8.3020313,6.9542609 8.4743667,8.2138903 c 0.083149,0.6077476 0.4869575,1.1621644 1.0322353,1.4172264 0.4350096,0.2034822 0.740139,0.2498018 1.146359,0.17402 z M 7.219419,8.5531915 C 7.7039832,8.3277501 8.1093244,7.8786686 8.2670936,7.3924638 8.5807784,6.4257658 9.3941105,5.7996734 10.336226,5.7996734 c 0.809897,0 1.618384,0.5261149 1.93901,1.2617921 0.07132,0.1636536 0.157005,0.2959748 0.191649,0.2959748 0.03446,0 0.220675,-0.043288 0.413808,-0.096195 0.408333,-0.1118597 0.401184,-0.071766 0.11775,-0.6604344 C 12.761457,6.108612 12.215621,5.5469609 11.729905,5.295516 10.072329,4.4374243 8.0987067,5.2451654 7.4831512,7.0335775 7.3475669,7.4274989 7.2125331,7.5995311 6.9307425,7.7373423 6.7129272,7.8438655 6.6456482,7.856045 6.3888478,7.8354402 6.1617746,7.8172201 6.0544434,7.7829684 5.9129679,7.6835766 5.6501801,7.4989576 5.4864926,7.2450376 5.4541165,6.9717849 5.4174935,6.6626883 5.4592065,6.4738117 5.6165382,6.2363854 5.904431,5.8019238 6.485671,5.6605146 6.9639779,5.9085676 L 7.1918156,6.0267255 7.4839036,5.7326628 7.7759916,5.4386 7.6424142,5.3288536 C 7.4304535,5.1547077 7.0884414,5.0066459 6.7630294,4.9481558 5.9690776,4.8054492 5.1293163,5.251899 4.7642408,6.01079 4.4901809,6.5804845 4.5480704,7.355384 4.902805,7.8655874 5.1394201,8.2059025 5.4754288,8.4690102 5.8510454,8.6080956 6.1998638,8.7372577 6.8826734,8.709861 7.219419,8.5531915 Z"
         id="path22"
         transform="matrix(0.99999057,0,0,0.9999887,0.0013362,-5.3422789e-4)"
         inkscape:export-xdpi="96"
         inkscape:export-ydpi="96" />
      <path
         style="fill:#ffffff;stroke-width:0.0518064"
         d="M 5.9151603,8.1463538 C 5.5761535,8.0848552 5.0946732,7.763111 4.7957592,7.3983258 4.6299416,7.1959673 4.5875907,7.0931401 4.5344714,6.7639243 4.4453063,6.2113092 4.5598915,5.8352507 4.954333,5.3859758 5.1987872,5.1075386 5.2766573,5.0534919 5.53972,4.9796802 5.7066039,4.932855 6.0164624,4.8946176 6.2282945,4.8947083 6.5878921,4.8948622 6.633159,4.9079814 6.9106206,5.0924591 L 7.2077975,5.2900451 7.0275774,5.4647213 6.8473573,5.6393974 6.6564943,5.5483812 C 6.1443353,5.3041496 5.5455704,5.4476251 5.2573017,5.8836544 5.1311451,6.0744764 5.1110585,6.1556825 5.1110585,6.4748871 c 0,0.3091464 0.02131,0.4015033 0.129516,0.5613267 C 5.6292837,7.6103473 6.4234002,7.6954223 6.8836426,7.2122383 6.971514,7.1199869 7.1185251,6.862237 7.210334,6.6394608 7.6087109,5.6727915 8.199356,5.0992381 9.1260533,4.7791775 9.3917961,4.6873959 9.5774854,4.6628814 10.006762,4.6629076 c 0.873933,5.33e-5 1.406953,0.227032 2.050692,0.8732579 0.454855,0.4566125 0.852392,1.122144 0.746497,1.2497391 -0.0513,0.061812 -0.659036,0.215634 -0.692571,0.1752939 C 12.10208,6.9500315 12.01718,6.7939632 11.922669,6.6143791 11.232132,5.3022193 9.4369195,5.0448215 8.456627,6.1174176 8.3119283,6.2757411 8.1931814,6.4325408 8.1927451,6.4658615 8.1922224,6.5057689 8.1770535,6.5029439 8.1482972,6.4575839 8.1177188,6.4093494 7.9687207,6.6043256 7.6508674,7.1085116 L 7.197092,7.8283 6.7669066,8.019226 C 6.5303046,8.1242354 6.3057322,8.2073826 6.2678569,8.2039977 6.2299815,8.2006126 6.0712681,8.174673 5.9151603,8.1463538 Z"
         id="path835"
         transform="translate(0.33404694,0.33982813)" />
      <path
         style="fill:#ffffff;stroke-width:0.0518064"
         d="m 8.6272694,12.318931 c -0.1239336,-0.02431 -0.1731625,-0.215595 -0.1741289,-0.676606 -4.155e-4,-0.198214 0.019004,-0.271983 0.071597,-0.271983 0.1014914,0 0.1350587,0.116936 0.1350587,0.470494 0,0.290527 0.00663,0.306601 0.1264585,0.306601 0.1506855,0 0.2268154,0.09673 0.126259,0.160418 -0.073723,0.0467 -0.098698,0.04767 -0.285244,0.01108 z"
         id="path837"
         transform="translate(0.33404694,0.33982813)" />
      <path
         style="fill:#ffffff;stroke-width:0.0518064"
         d="m 3.0952147,12.143462 c -0.181667,-0.215899 -0.1757428,-0.428631 0.017313,-0.621686 0.1788057,-0.178806 0.4291419,-0.200651 0.6197574,-0.05408 0.1570363,0.120749 0.054178,0.205024 -0.1299571,0.106478 -0.2933727,-0.157008 -0.596382,0.163675 -0.4155002,0.439736 0.094617,0.144403 0.274135,0.174639 0.4567166,0.07693 0.068846,-0.03685 0.1234363,-0.03894 0.156379,-0.006 0.079459,0.07946 -0.1617249,0.21802 -0.3794943,0.21802 -0.1497855,0 -0.2200853,-0.03445 -0.3252143,-0.159394 z"
         id="path841"
         transform="translate(0.33404694,0.33982813)" />
      <path
         style="fill:#ffffff;stroke-width:0.0518064"
         d="m 3.9972212,11.862502 c 0,-0.402938 0.014088,-0.49216 0.07771,-0.49216 0.063622,0 0.07771,0.08922 0.07771,0.49216 0,0.402939 -0.014088,0.492161 -0.07771,0.492161 -0.063622,0 -0.07771,-0.08922 -0.07771,-0.492161 z"
         id="path843"
         transform="translate(0.33404694,0.33982813)" />
      <path
         style="fill:#ffffff;stroke-width:0.0518064"
         d="m 4.3355556,11.953163 c 0.040224,-0.444454 0.1193468,-0.582821 0.3332762,-0.582821 0.2679504,0 0.3190868,0.09011 0.3021525,0.53245 -0.00852,0.222448 -0.0384,0.400823 -0.067151,0.400823 -0.028593,0 -0.058586,-0.174267 -0.066937,-0.388927 -0.015508,-0.398611 -0.039443,-0.434313 -0.239664,-0.357481 -0.061716,0.02368 -0.081947,0.105769 -0.081947,0.332504 0,0.351971 -0.033893,0.464952 -0.1394788,0.464952 -0.064116,0 -0.07067,-0.06538 -0.040251,-0.4015 z"
         id="path845"
         transform="translate(0.33404694,0.33982813)" />
      <path
         style="fill:#ffffff;stroke-width:0.0518064"
         d="M 5.3571388,12.301242 C 5.2490259,12.257786 5.2405745,12.22234 5.2405745,11.812365 v -0.442023 h 0.2374459 c 0.2544886,0 0.3023568,0.101368 0.073392,0.155419 -0.1851116,0.0437 -0.1876632,0.15156 -0.00445,0.188203 0.2090531,0.04181 0.2124381,0.174441 0.00445,0.174441 -0.1312429,0 -0.1554192,0.02015 -0.1554192,0.129516 0,0.102778 0.026107,0.129516 0.1264585,0.129516 0.1506856,0 0.2268155,0.09673 0.126259,0.160418 -0.087154,0.0552 -0.1408113,0.05399 -0.2915723,-0.0066 z"
         id="path847"
         transform="translate(0.33404694,0.33982813)" />
      <path
         style="fill:#ffffff;stroke-width:0.0518064"
         d="M 6.6639943,12.282344 C 6.3595575,12.149701 6.2920532,11.761471 6.531749,11.521776 c 0.1680031,-0.168004 0.4305772,-0.20384 0.5977715,-0.08158 0.1249897,0.0914 0.059922,0.20997 -0.075461,0.137515 -0.2471943,-0.132294 -0.5183256,0.0078 -0.5183256,0.267894 0,0.261606 0.2619447,0.36314 0.5828218,0.225911 0.06548,-0.028 0.090661,-0.01492 0.090661,0.04712 0,0.04905 -0.077073,0.118099 -0.1796584,0.160962 -0.2105045,0.08795 -0.1706872,0.08765 -0.3655644,0.0027 z"
         id="path849"
         transform="translate(0.33404694,0.33982813)" />
      <path
         style="fill:#ffffff;stroke-width:0.0518064"
         d="m 8.6013987,12.320176 c -0.09548,-0.02545 -0.147395,-0.264139 -0.1482582,-0.68165 -4.856e-4,-0.234867 0.01288,-0.273215 0.090091,-0.258482 0.074642,0.01424 0.093351,0.08357 0.1058824,0.392346 0.014488,0.35699 0.021201,0.375047 0.1394101,0.375047 0.1488031,0 0.223887,0.09714 0.1239894,0.160418 -0.074194,0.04699 -0.167198,0.05068 -0.3111147,0.01232 z"
         id="path853"
         transform="translate(0.33404694,0.33982813)" />
      <path
         style="fill:#ffffff;stroke-width:0.0518064"
         d="m 9.1595215,12.175814 c -0.3012504,-0.279189 -0.082973,-0.807656 0.3320113,-0.803825 0.2847077,0.0026 0.4634227,0.201375 0.4634227,0.515365 0,0.377049 -0.5030151,0.559465 -0.795434,0.28846 z m 0.5452744,-0.114116 c 0.1243359,-0.112522 0.1204264,-0.303026 -0.00887,-0.432325 -0.2006807,-0.20068 -0.5180639,-0.07107 -0.5180639,0.211555 0,0.276118 0.318381,0.40951 0.5269362,0.22077 z"
         id="path855"
         transform="translate(0.33404694,0.33982813)" />
      <path
         style="fill:#ffffff;stroke-width:0.0518064"
         d="m 10.092803,12.279985 c -0.09099,-0.237129 -0.0055,-0.778113 0.137377,-0.868941 0.03383,-0.02151 0.192711,-0.03947 0.35306,-0.03991 0.382273,-10e-4 0.433746,0.06281 0.433746,0.538067 0,0.426124 -0.09708,0.527609 -0.117042,0.122351 -0.01864,-0.378532 -0.05403,-0.505792 -0.140629,-0.505792 -0.07836,0 -0.121051,0.169358 -0.143634,0.56987 -0.02094,0.371375 -0.114298,0.269989 -0.142662,-0.154931 -0.0211,-0.316052 -0.04273,-0.391258 -0.116564,-0.405298 -0.07867,-0.01496 -0.09066,0.02648 -0.09066,0.3134 0,0.350979 -0.104151,0.610577 -0.172991,0.431183 z"
         id="path859"
         transform="translate(0.33404694,0.33982813)" />
      <path
         style="fill:#ffffff;stroke-width:0.0518064"
         d="m 11.509147,12.313568 c -0.208482,-0.06501 -0.259032,-0.174821 -0.259032,-0.562708 v -0.380518 h 0.222768 c 0.237798,0 0.347102,0.06796 0.347102,0.215829 0,0.05032 0.0392,0.1737 0.08711,0.274175 0.08471,0.177642 0.08388,0.18613 -0.03035,0.307716 -0.128007,0.136257 -0.246653,0.18322 -0.367603,0.145506 z m 0.254477,-0.238352 c 0.04628,-0.05576 0.04098,-0.09118 -0.02326,-0.155419 -0.04576,-0.04576 -0.113648,-0.0832 -0.150864,-0.0832 -0.09923,0 -0.200239,0.141899 -0.165484,0.232469 0.03774,0.09836 0.259741,0.102382 0.339608,0.0061 z m -0.199265,-0.395859 c 0.136632,-0.07312 0.126598,-0.164568 -0.01583,-0.144248 -0.06382,0.0091 -0.123811,0.05735 -0.133315,0.107216 -0.01992,0.104497 0.0095,0.11179 0.149143,0.03703 z"
         id="path861"
         transform="translate(0.33404694,0.33982813)" />
      <path
         style="fill:#ffffff;stroke-width:0.0518064"
         d="m 12.249961,11.629373 c 0,-0.156714 0.0097,-0.220824 0.02158,-0.142467 0.01187,0.07836 0.01187,0.206578 0,0.284935 -0.01187,0.07836 -0.02158,0.01425 -0.02158,-0.142468 z"
         id="path863"
         transform="translate(0.33404694,0.33982813)" />
      <path
         style="fill:#ffffff;stroke-width:0.0518064"
         d="m 12.477063,12.320989 c -0.01947,-0.01947 -0.0354,-0.204697 -0.0354,-0.411614 0,-0.272937 0.02235,-0.398562 0.08141,-0.457623 0.103167,-0.103167 0.353636,-0.105221 0.455125,-0.0037 0.106065,0.106065 0.166009,0.62033 0.0914,0.78409 -0.07394,0.162276 -0.161674,0.112801 -0.161674,-0.09117 0,-0.139403 -0.015,-0.154078 -0.142467,-0.13941 -0.107158,0.01233 -0.146765,0.04849 -0.159806,0.145908 -0.01985,0.148291 -0.07688,0.225258 -0.128583,0.173552 z m 0.430856,-0.636318 c 0,-0.103794 -0.167002,-0.189885 -0.258568,-0.133294 -0.02875,0.01777 -0.05227,0.07756 -0.05227,0.13286 0,0.07719 0.03611,0.100556 0.155419,0.100556 0.119075,0 0.155419,-0.02341 0.155419,-0.100122 z"
         id="path865"
         transform="translate(0.33404694,0.33982813)" />
      <path
         style="fill:#ffffff;stroke-width:0.0518064"
         d="M 9.5405044,9.4074822 C 8.9989252,9.2311489 8.5417796,8.8291981 8.3069206,8.3228385 8.1248057,7.9301963 8.1190709,7.3456871 8.2929568,6.8996156 8.6675788,5.9385933 9.8960467,5.4673172 10.807131,5.9351051 c 0.413026,0.2120648 1.015299,0.9192066 0.94311,1.1073274 -0.02698,0.070318 -0.220508,0.1404263 -0.593609,0.2150466 -0.125092,0.025018 -0.165549,0.014815 -0.165549,-0.041751 0,-0.143025 -0.360258,-0.4984804 -0.596754,-0.5887991 C 10.075058,6.5049986 9.6473008,6.5499135 9.4109531,6.7301847 9.1134648,6.9570901 9.0023243,7.1602616 8.9794858,7.5189325 8.937806,8.173501 9.3002884,8.5788122 9.9607446,8.6161313 c 0.3097394,0.017502 0.3831264,0.00292 0.5871704,-0.1166561 0.144604,-0.084744 0.285447,-0.22583 0.370753,-0.3713925 0.07566,-0.1291041 0.163702,-0.2248997 0.19565,-0.2128791 0.03195,0.012021 0.192137,0.06064 0.355974,0.1080428 0.163838,0.047403 0.297887,0.1097777 0.297887,0.1386103 0,0.1288445 -0.238361,0.4988156 -0.471712,0.7321673 -0.356474,0.3564739 -0.746418,0.5276014 -1.237899,0.5432535 -0.2137011,0.00681 -0.4468298,-0.0066 -0.5180636,-0.029795 z"
         id="path867"
         transform="translate(0.33404694,0.33982813)" />
      <path
         style="fill:#ffffff;stroke-width:0.0518064"
         d="M 5.5453143,8.2452002 C 5.0537925,8.0617969 4.5883401,7.6084161 4.414457,7.143672 4.2702584,6.7582666 4.2706284,6.1900208 4.4153298,5.8032716 4.5532774,5.4345735 4.9557231,4.9919492 5.3110863,4.8180862 5.8536531,4.552633 6.3554938,4.554122 6.9545502,4.8229625 7.419482,5.0316115 7.4286258,5.0624491 7.1177436,5.3733313 L 6.8527295,5.6383454 6.6308205,5.5384279 C 6.3281424,5.4021431 5.9018856,5.4109243 5.6162285,5.5593293 5.0068645,5.875907 4.9058931,6.744664 5.4230576,7.2213696 5.7536354,7.5260856 6.1529962,7.6113933 6.5237394,7.4564869 6.8311508,7.3280422 6.9424845,7.1864881 7.2683227,6.5097941 7.528402,5.9696667 7.6302074,5.8169463 7.9300872,5.5170665 8.862544,4.5846097 10.199945,4.3853541 11.408026,4.9988981 c 0.376183,0.1910506 1.037301,0.8954035 1.258366,1.3406591 0.1344,0.2707006 0.17473,0.4015599 0.137559,0.4463474 -0.05154,0.0621 -0.657903,0.2152403 -0.694081,0.1752939 C 12.099756,6.9500319 12.032423,6.8232799 11.96024,6.6795274 11.538492,5.8396149 10.574988,5.3277258 9.6834745,5.4699304 9.5051134,5.4983806 9.2357285,5.5779126 9.0848407,5.6466683 8.7185136,5.8135942 8.2511751,6.2890505 8.0673201,6.6818637 7.9873023,6.8528248 7.8641089,7.1162782 7.7935568,7.2673156 7.6356356,7.6053928 7.2611555,7.9868114 6.9209765,8.1560634 6.6087911,8.3113876 5.8538025,8.3603075 5.5453143,8.2452002 Z"
         id="path869"
         transform="translate(0.33404694,0.33982813)" />
      <path
         style="fill:#ffffff;stroke-width:0.0518064"
         d="M 9.2354855,10.459557 C 8.7445149,10.327518 8.3500683,10.08111 7.8855579,9.6162665 L 7.4480615,9.1784564 7.2379781,9.2389595 C 6.6982921,9.3943875 6.2410508,9.4587968 5.9149266,9.4253304 5.2253138,9.3545639 4.6543787,9.0978239 4.1388452,8.6266552 3.1767252,7.7473316 2.9144806,6.3917962 3.4803225,5.2227686 3.9949117,4.1596289 4.9678718,3.536702 6.121283,3.5319232 6.8361405,3.5289614 7.4890295,3.7561325 8.0122161,4.1898687 L 8.1676352,4.3187155 7.901316,4.5873969 7.6349967,4.8560782 7.3314457,4.6696278 C 6.1906508,3.9689159 4.7791024,4.36698 4.1946217,5.5542287 4.0318828,5.8847985 4.0231244,5.9318037 4.0231244,6.4746382 c 0,0.5401474 0.00935,0.5910332 0.1675885,0.9124695 0.2147515,0.4362221 0.6109646,0.8320226 1.0460053,1.0449159 0.3177381,0.1554896 0.3771068,0.1666763 0.8845648,0.1666763 0.5032535,0 0.5698671,-0.01227 0.8900135,-0.1639424 C 7.201622,8.3445893 7.4618463,8.1744873 7.5895726,8.0567532 7.8382748,7.8275076 7.8502038,7.8293672 7.90894,8.1065393 8.0257746,8.6578737 8.5417535,9.305954 9.0486251,9.5380077 10.162292,10.047861 11.439298,9.6042287 11.949324,8.5303023 12.032948,8.3542197 12.127078,8.2101521 12.1585,8.2101521 c 0.09014,0 0.615683,0.1608348 0.658807,0.2016166 0.0214,0.020235 -0.05521,0.231407 -0.170239,0.4692714 -0.365443,0.7556904 -1.109044,1.3773309 -1.891266,1.5810739 -0.379659,0.09889 -1.1479078,0.0976 -1.5203165,-0.0026 z"
         id="path871"
         transform="translate(0.33404694,0.33982813)" />
      <path
         style="fill:#ffffff;stroke-width:0.0518064"
         d=""
         id="path873"
         transform="translate(0.33404694,0.33982813)" />
    </g>
  </g>
</svg>
